<svg width="176" height="51" viewBox="0 0 176 51" fill="none" xmlns="http://www.w3.org/2000/svg">
<path d="M20.616 17.0917C20.616 17.8591 20.616 18.5588 20.616 19.1908C20.616 19.8228 20.6611 20.3871 20.7514 20.8836C20.9771 22.4184 21.5414 23.9984 22.4442 25.6235C23.3471 27.2034 24.4305 28.806 25.6944 30.4311C26.9584 32.011 28.3126 33.5684 29.7572 35.1032C31.2469 36.5929 32.6688 37.9923 34.0231 39.3014C35.5579 40.8362 36.3253 42.7999 36.3253 45.1924C36.3253 46.8627 35.919 47.9235 35.1065 48.3749C34.3391 48.8263 33.3459 49.052 32.1271 49.052C31.4049 49.052 31.0437 48.9392 31.0437 48.7135C31.3597 48.0815 31.5177 47.6752 31.5177 47.4946C31.5177 46.9981 31.0663 46.7498 30.1635 46.7498C29.9829 46.7498 29.6218 46.7949 29.0801 46.8852C28.5835 46.9304 28.0644 47.0206 27.5227 47.1561C26.981 47.2915 26.4844 47.4946 26.033 47.7655C25.6267 47.9912 25.4236 48.3072 25.4236 48.7135C25.4236 48.9843 25.4461 49.2326 25.4913 49.4583C25.5816 49.6389 25.7621 49.7969 26.033 49.9323C26.349 50.0677 26.8004 50.1806 27.3872 50.2709C27.9741 50.3611 28.7866 50.4063 29.8249 50.4063C34.6551 50.4063 38.3567 49.7291 40.9297 48.3749C42.8708 47.3818 44.7442 45.9824 46.5499 44.1767C48.3556 42.3259 49.9581 40.2945 51.3575 38.0826C52.7569 35.8255 53.8628 33.5007 54.6754 31.1082C55.5331 28.7157 55.9619 26.4586 55.9619 24.3369C55.9619 21.0867 55.6234 17.9945 54.9462 15.0603C54.2691 12.1261 53.1631 9.57562 51.6283 7.40882C50.0935 5.19687 48.1073 3.43635 45.6696 2.12724C43.2771 0.818128 40.3429 0.163572 36.867 0.163572C31.8563 0.163572 27.9289 1.67582 25.085 4.70031C22.6022 7.31853 21.1577 10.9073 20.7514 15.4666C17.4561 14.7895 15.199 13.9092 13.9802 12.8258V1.24697H20.7514V0.434423H0.031376V1.24697H3.9587V49.1874H0.031376V50H20.7514V49.2552H13.9802V16.2792C14.883 16.4597 15.8761 16.6177 16.9595 16.7531C18.0881 16.8886 19.3069 17.0014 20.616 17.0917ZM33.3459 1.3824C33.6619 1.33726 33.9328 1.31469 34.1585 1.31469C34.4293 1.31469 34.7002 1.31469 34.971 1.31469C36.9121 1.31469 38.5824 1.99181 39.9818 3.34606C41.3812 4.65517 42.5323 6.46084 43.4351 8.76307C44.3379 11.0653 45.0151 13.7964 45.4665 16.9563C45.9179 20.0711 46.1436 23.4567 46.1436 27.1132C46.1436 40.6557 42.6451 47.9686 35.6482 49.052C38.3567 47.4269 39.7109 44.9441 39.7109 41.6036C39.7109 37.6763 37.9504 33.0719 34.4293 27.7903C30.3666 21.8316 28.3352 15.8729 28.3352 9.91418C28.3352 4.81317 30.0055 1.96924 33.3459 1.3824ZM80.0501 1.24697V9.23705C80.0501 9.46276 80.163 9.80133 80.3887 10.2527C80.6595 10.659 81.0207 11.1556 81.4721 11.7424C81.9687 12.2841 82.5329 12.871 83.1649 13.5029C83.842 14.1349 84.5869 14.7443 85.3994 15.3312C86.9794 16.4597 88.3562 17.3626 89.5299 18.0397C90.7487 18.6717 91.8321 19.1005 92.7801 19.3262C92.2384 18.6491 91.787 18.0397 91.4258 17.498C91.0647 16.9111 90.7713 16.3469 90.5456 15.8052C90.3199 15.2183 90.1619 14.6315 90.0716 14.0446C89.9813 13.4578 89.9362 12.7807 89.9362 12.0133V0.434423H60.0072V1.24697H63.9345V49.1874H60.0072V50H89.9362V49.1874H73.956V1.24697H80.0501ZM112.278 41.0619C112.278 39.798 114.625 36.8863 119.32 32.327C121.125 30.5665 122.863 28.8963 124.534 27.3163C126.204 25.6912 127.671 24.0887 128.935 22.5087C130.244 20.9288 131.282 19.3037 132.05 17.6334C132.862 15.918 133.268 14.1124 133.268 12.2164C133.268 10.6816 132.907 9.32734 132.185 8.15365C131.463 6.97997 130.492 5.96428 129.273 5.10659C128.1 4.20376 126.723 3.45892 125.143 2.87208C123.563 2.24009 121.915 1.74353 120.2 1.3824C118.53 0.976123 116.837 0.705274 115.122 0.56985C113.406 0.389283 111.826 0.299 110.382 0.299C108.711 0.299 107.267 0.366713 106.048 0.502139C104.874 0.592421 103.904 0.86327 103.136 1.31469C102.369 1.7661 101.805 2.42066 101.444 3.27835C101.082 4.0909 100.902 5.24201 100.902 6.73169V49.1874H96.8391V50H122.57V49.1874H110.788V42.6193C112.368 43.477 114.264 43.9059 116.476 43.9059C117.785 43.9059 118.846 43.8382 119.658 43.7027C120.471 43.5673 121.08 43.4093 121.486 43.2287C121.938 43.003 122.231 42.7548 122.367 42.4839C122.502 42.1679 122.57 41.8745 122.57 41.6036C122.57 41.1071 122.322 40.6782 121.825 40.3171C121.374 39.956 120.809 39.6626 120.132 39.4368C119.5 39.2111 118.846 39.0531 118.169 38.9629C117.537 38.8274 117.063 38.7597 116.747 38.7597C115.934 38.7597 115.528 39.008 115.528 39.5046C115.528 39.5948 115.573 39.7528 115.663 39.9785C115.753 40.2043 115.844 40.4525 115.934 40.7234C116.024 40.9942 116.115 41.2425 116.205 41.4682C116.295 41.6939 116.34 41.8745 116.34 42.0099C116.34 42.4162 116.024 42.6193 115.392 42.6193C115.167 42.6193 114.873 42.5968 114.512 42.5516C114.196 42.5065 113.858 42.4388 113.496 42.3485C113.18 42.2131 112.887 42.0551 112.616 41.8745C112.39 41.6939 112.278 41.4682 112.278 41.1974V41.0619ZM116.882 2.4658C120.674 4.0909 122.57 7.79252 122.57 13.5707C122.57 20.1162 120.719 25.9846 117.017 31.1759C115.076 33.8393 113.564 36.0286 112.481 37.744C111.442 39.4143 110.878 40.6331 110.788 41.4005V3.34606C110.788 2.21752 111.646 1.65325 113.361 1.65325C114.49 1.65325 115.663 1.9241 116.882 2.4658ZM161.414 49.1874H160.872V50H175.362V49.1874H171.3V1.24697H175.362V0.434423H149.699C149.654 0.479567 149.632 0.56985 149.632 0.705274C149.632 0.976123 149.744 1.3824 149.97 1.9241C150.241 2.42066 150.602 2.93979 151.054 3.48149C151.55 3.97805 152.137 4.40689 152.814 4.76803C153.491 5.12916 154.236 5.30973 155.049 5.30973C155.184 5.30973 155.297 5.26458 155.387 5.1743C155.297 5.12916 155.252 5.0163 155.252 4.83574C155.252 4.38432 155.703 3.77491 156.606 3.0075C157.554 2.19495 158.931 1.65325 160.736 1.3824H161.414V5.98685C161.414 10.6364 158.209 15.444 151.798 20.4096C143.763 26.594 139.746 33.591 139.746 41.4005C139.746 42.6645 139.836 43.951 140.016 45.2601C140.242 46.5692 140.603 47.8783 141.1 49.1874H137.308V50H153.424V49.1874H152.882C151.798 47.2464 150.986 45.0344 150.444 42.5516C150.986 40.4751 154.642 38.9177 161.414 37.8795V49.1874ZM161.414 36.7283C158.841 36.8638 156.583 37.0443 154.642 37.27C152.701 37.4506 151.076 37.6989 149.767 38.0149C149.677 37.5635 149.632 37.1346 149.632 36.7283C149.632 36.3221 149.632 35.8932 149.632 35.4418C149.632 29.4831 151.121 24.8335 154.101 21.493C158.028 17.2497 160.466 14.2704 161.414 12.555V36.7283Z" fill="white"/>
</svg>
